<?xml version="1.0" encoding="UTF-8" standalone="no"?>
<!-- Created with Inkscape (http://www.inkscape.org/) -->

<svg
   xmlns:dc="http://purl.org/dc/elements/1.1/"
   xmlns:cc="http://creativecommons.org/ns#"
   xmlns:rdf="http://www.w3.org/1999/02/22-rdf-syntax-ns#"
   xmlns:svg="http://www.w3.org/2000/svg"
   xmlns="http://www.w3.org/2000/svg"
   xmlns:sodipodi="http://sodipodi.sourceforge.net/DTD/sodipodi-0.dtd"
   xmlns:inkscape="http://www.inkscape.org/namespaces/inkscape"
   width="744.09448"
   height="1052.3622"
   id="svg4972"
   version="1.1"
   inkscape:version="0.91 r13725"
   viewBox="0 0 744.09448 1052.3622"
   sodipodi:docname="twitter logo.svg"
   inkscape:export-filename="/home/ahmed/Documents/Bachelor/TwitterFrontEnd/twitter logo.svg.png"
   inkscape:export-xdpi="90"
   inkscape:export-ydpi="90">
  <defs
     id="defs4974">
    <clipPath
       clipPathUnits="userSpaceOnUse"
       id="clipPath4490">
      <path
         style="fill:#ff0000;fill-opacity:0;stroke:#000000;stroke-width:3.49657106;stroke-miterlimit:4;stroke-dasharray:none;stroke-opacity:1"
         d="m 537.5374,-184.81632 a 126.41578,174.62744 0.03898047 0 0 -35.83751,-124.25877 126.41578,174.62744 0.03898047 0 0 0.29247,242.992561 126.41578,174.62744 0.03898047 0 0 35.54504,-118.733791 z"
         id="path4492"
         inkscape:connector-curvature="0"
         inkscape:transform-center-x="63.593888"
         inkscape:transform-center-y="88.145019" />
    </clipPath>
    <clipPath
       clipPathUnits="userSpaceOnUse"
       id="clipPath4796">
      <path
         style="fill:#ff0000;fill-opacity:0;stroke:#000000;stroke-width:3.49657106;stroke-miterlimit:4;stroke-dasharray:none;stroke-opacity:1"
         d="m 537.5374,-184.81632 a 126.41578,174.62744 0.03898047 0 0 -35.83751,-124.25877 126.41578,174.62744 0.03898047 0 0 0.29247,242.992561 126.41578,174.62744 0.03898047 0 0 35.54504,-118.733791 z"
         id="path4798"
         inkscape:connector-curvature="0"
         inkscape:transform-center-x="63.593888"
         inkscape:transform-center-y="88.145019" />
    </clipPath>
    <clipPath
       clipPathUnits="userSpaceOnUse"
       id="clipPath4800">
      <path
         style="fill:#ff0000;fill-opacity:0;stroke:#000000;stroke-width:3.49657106;stroke-miterlimit:4;stroke-dasharray:none;stroke-opacity:1"
         d="m 537.5374,-184.81632 a 126.41578,174.62744 0.03898047 0 0 -35.83751,-124.25877 126.41578,174.62744 0.03898047 0 0 0.29247,242.992561 126.41578,174.62744 0.03898047 0 0 35.54504,-118.733791 z"
         id="path4802"
         inkscape:connector-curvature="0"
         inkscape:transform-center-x="63.593888"
         inkscape:transform-center-y="88.145019" />
    </clipPath>
    <clipPath
       clipPathUnits="userSpaceOnUse"
       id="clipPath4804">
      <path
         style="fill:#ff0000;fill-opacity:0;stroke:#000000;stroke-width:3.49657106;stroke-miterlimit:4;stroke-dasharray:none;stroke-opacity:1"
         d="m 537.5374,-184.81632 a 126.41578,174.62744 0.03898047 0 0 -35.83751,-124.25877 126.41578,174.62744 0.03898047 0 0 0.29247,242.992561 126.41578,174.62744 0.03898047 0 0 35.54504,-118.733791 z"
         id="path4806"
         inkscape:connector-curvature="0"
         inkscape:transform-center-x="63.593888"
         inkscape:transform-center-y="88.145019" />
    </clipPath>
    <clipPath
       clipPathUnits="userSpaceOnUse"
       id="clipPath4808">
      <path
         style="fill:#ff0000;fill-opacity:0;stroke:#000000;stroke-width:3.49657106;stroke-miterlimit:4;stroke-dasharray:none;stroke-opacity:1"
         d="m 537.5374,-184.81632 a 126.41578,174.62744 0.03898047 0 0 -35.83751,-124.25877 126.41578,174.62744 0.03898047 0 0 0.29247,242.992561 126.41578,174.62744 0.03898047 0 0 35.54504,-118.733791 z"
         id="path4810"
         inkscape:connector-curvature="0"
         inkscape:transform-center-x="63.593888"
         inkscape:transform-center-y="88.145019" />
    </clipPath>
    <clipPath
       clipPathUnits="userSpaceOnUse"
       id="clipPath4812">
      <path
         style="fill:#ff0000;fill-opacity:0;stroke:#000000;stroke-width:3.49657106;stroke-miterlimit:4;stroke-dasharray:none;stroke-opacity:1"
         d="m 537.5374,-184.81632 a 126.41578,174.62744 0.03898047 0 0 -35.83751,-124.25877 126.41578,174.62744 0.03898047 0 0 0.29247,242.992561 126.41578,174.62744 0.03898047 0 0 35.54504,-118.733791 z"
         id="path4814"
         inkscape:connector-curvature="0"
         inkscape:transform-center-x="63.593888"
         inkscape:transform-center-y="88.145019" />
    </clipPath>
    <clipPath
       clipPathUnits="userSpaceOnUse"
       id="clipPath4816">
      <path
         style="fill:#ff0000;fill-opacity:0;stroke:#000000;stroke-width:3.49657106;stroke-miterlimit:4;stroke-dasharray:none;stroke-opacity:1"
         d="m 537.5374,-184.81632 a 126.41578,174.62744 0.03898047 0 0 -35.83751,-124.25877 126.41578,174.62744 0.03898047 0 0 0.29247,242.992561 126.41578,174.62744 0.03898047 0 0 35.54504,-118.733791 z"
         id="path4818"
         inkscape:connector-curvature="0"
         inkscape:transform-center-x="63.593888"
         inkscape:transform-center-y="88.145019" />
    </clipPath>
    <clipPath
       clipPathUnits="userSpaceOnUse"
       id="clipPath4820">
      <path
         style="fill:#ff0000;fill-opacity:0;stroke:#000000;stroke-width:3.49657106;stroke-miterlimit:4;stroke-dasharray:none;stroke-opacity:1"
         d="m 537.5374,-184.81632 a 126.41578,174.62744 0.03898047 0 0 -35.83751,-124.25877 126.41578,174.62744 0.03898047 0 0 0.29247,242.992561 126.41578,174.62744 0.03898047 0 0 35.54504,-118.733791 z"
         id="path4822"
         inkscape:connector-curvature="0"
         inkscape:transform-center-x="63.593888"
         inkscape:transform-center-y="88.145019" />
    </clipPath>
  </defs>
  <sodipodi:namedview
     id="base"
     pagecolor="#ffffff"
     bordercolor="#ffffff"
     borderopacity="0.0"
     inkscape:pageopacity="0.0"
     inkscape:pageshadow="0"
     inkscape:zoom="0.7"
     inkscape:cx="356.1428"
     inkscape:cy="600.55581"
     inkscape:document-units="px"
     inkscape:current-layer="layer5"
     showgrid="false"
     inkscape:window-width="1366"
     inkscape:window-height="701"
     inkscape:window-x="0"
     inkscape:window-y="35"
     inkscape:window-maximized="1" />
  <metadata
     id="metadata4977">
    <rdf:RDF>
      <cc:Work
         rdf:about="">
        <dc:format>image/svg+xml</dc:format>
        <dc:type
           rdf:resource="http://purl.org/dc/dcmitype/StillImage" />
        <dc:title></dc:title>
      </cc:Work>
    </rdf:RDF>
  </metadata>
  <g
     inkscape:label="Layer 1"
     inkscape:groupmode="layer"
     id="layer1">
    <path
       inkscape:transform-center-y="-83.445547"
       inkscape:transform-center-x="0.10871611"
       inkscape:connector-curvature="0"
       id="path4520"
       d="m 537.83692,-152.32818 a 127.44965,127.50667 45 0 0 -36.13867,-90.709 127.44965,127.50667 45 0 0 0.29492,177.384769 127.44965,127.50667 45 0 0 35.84375,-86.675769 z"
       style="fill:#ff0000;fill-opacity:0;stroke:#000000;stroke-width:3;stroke-miterlimit:4;stroke-dasharray:none;stroke-opacity:1"
       clip-path="url(#clipPath4490)"
       transform="matrix(0.99938458,0,0,1.6027581,-93.11916,673.47377)" />
    <path
       inkscape:transform-center-y="-83.445547"
       inkscape:transform-center-x="0.10871611"
       inkscape:connector-curvature="0"
       id="path4522"
       d="m 537.83692,-152.32818 a 127.44965,127.50667 45 0 0 -36.13867,-90.709 127.44965,127.50667 45 0 0 0.29492,177.384769 127.44965,127.50667 45 0 0 35.84375,-86.675769 z"
       style="fill:#ff0000;fill-opacity:0;stroke:#000000;stroke-width:3;stroke-miterlimit:4;stroke-dasharray:none;stroke-opacity:1"
       clip-path="url(#clipPath4490)"
       transform="matrix(0.70667161,0.70667161,-1.1333211,1.1333211,-62.09451,270.70999)" />
    <path
       inkscape:transform-center-y="-83.445547"
       inkscape:transform-center-x="0.10871611"
       inkscape:connector-curvature="0"
       id="path4524"
       d="m 537.83692,-152.32818 a 127.44965,127.50667 45 0 0 -36.13867,-90.709 127.44965,127.50667 45 0 0 0.29492,177.384769 127.44965,127.50667 45 0 0 35.84375,-86.675769 z"
       style="fill:#ff0000;fill-opacity:0;stroke:#000000;stroke-width:3;stroke-miterlimit:4;stroke-dasharray:none;stroke-opacity:1"
       clip-path="url(#clipPath4490)"
       transform="matrix(0,0.99938458,-1.6027581,0,244.64022,7.8507459)" />
    <path
       inkscape:transform-center-y="-83.445547"
       inkscape:transform-center-x="0.10871611"
       inkscape:connector-curvature="0"
       id="path4526"
       d="m 537.83692,-152.32818 a 127.44965,127.50667 45 0 0 -36.13867,-90.709 127.44965,127.50667 45 0 0 0.29492,177.384769 127.44965,127.50667 45 0 0 35.84375,-86.675769 z"
       style="fill:#ff0000;fill-opacity:0;stroke:#000000;stroke-width:3;stroke-miterlimit:4;stroke-dasharray:none;stroke-opacity:1"
       clip-path="url(#clipPath4490)"
       transform="matrix(-0.70667161,0.70667161,-1.1333211,-1.1333211,647.404,38.875396)" />
    <path
       inkscape:transform-center-y="-83.445547"
       inkscape:transform-center-x="0.10871611"
       inkscape:connector-curvature="0"
       id="path4528"
       d="m 537.83692,-152.32818 a 127.44965,127.50667 45 0 0 -36.13867,-90.709 127.44965,127.50667 45 0 0 0.29492,177.384769 127.44965,127.50667 45 0 0 35.84375,-86.675769 z"
       style="fill:#ff0000;fill-opacity:0;stroke:#000000;stroke-width:3;stroke-miterlimit:4;stroke-dasharray:none;stroke-opacity:1"
       clip-path="url(#clipPath4490)"
       transform="matrix(-0.99938458,0,0,-1.6027581,910.26325,345.61012)" />
    <path
       inkscape:transform-center-y="-83.445547"
       inkscape:transform-center-x="0.10871611"
       inkscape:connector-curvature="0"
       id="path4530"
       d="m 537.83692,-152.32818 a 127.44965,127.50667 45 0 0 -36.13867,-90.709 127.44965,127.50667 45 0 0 0.29492,177.384769 127.44965,127.50667 45 0 0 35.84375,-86.675769 z"
       style="fill:#ff0000;fill-opacity:0;stroke:#000000;stroke-width:3;stroke-miterlimit:4;stroke-dasharray:none;stroke-opacity:1"
       clip-path="url(#clipPath4490)"
       transform="matrix(-0.70667161,-0.70667161,1.1333211,-1.1333211,879.2386,748.37389)" />
    <path
       inkscape:transform-center-y="-83.445547"
       inkscape:transform-center-x="0.10871611"
       inkscape:connector-curvature="0"
       id="path4532"
       d="m 537.83692,-152.32818 a 127.44965,127.50667 45 0 0 -36.13867,-90.709 127.44965,127.50667 45 0 0 0.29492,177.384769 127.44965,127.50667 45 0 0 35.84375,-86.675769 z"
       style="fill:#ff0000;fill-opacity:0;stroke:#000000;stroke-width:3;stroke-miterlimit:4;stroke-dasharray:none;stroke-opacity:1"
       clip-path="url(#clipPath4490)"
       transform="matrix(0,-0.99938458,1.6027581,0,572.50386,1011.2331)" />
    <path
       transform="matrix(0.70667161,-0.70667161,1.1333211,1.1333211,169.74009,980.2085)"
       clip-path="url(#clipPath4490)"
       style="fill:#ff0000;fill-opacity:0;stroke:#000000;stroke-width:3;stroke-miterlimit:4;stroke-dasharray:none;stroke-opacity:1"
       d="m 537.83692,-152.32818 a 127.44965,127.50667 45 0 0 -36.13867,-90.709 127.44965,127.50667 45 0 0 0.29492,177.384769 127.44965,127.50667 45 0 0 35.84375,-86.675769 z"
       id="path4494"
       inkscape:connector-curvature="0"
       inkscape:transform-center-x="59.114044"
       inkscape:transform-center-y="-58.895773" />
    <path
       inkscape:transform-center-y="-191.08637"
       inkscape:transform-center-x="81.348167"
       d="m 406.66699,280.93584 a 119.14597,112.39597 0 0 1 -64.30819,65.42578 119.14597,112.39597 0 0 1 -94.57926,0.60963"
       sodipodi:open="true"
       sodipodi:end="1.9721161"
       sodipodi:start="0.33950627"
       sodipodi:ry="112.39597"
       sodipodi:rx="119.14597"
       sodipodi:cy="243.50555"
       sodipodi:cx="294.32196"
       sodipodi:type="arc"
       id="path4642"
       style="fill:#ffffff;fill-opacity:0;stroke:#000000;stroke-width:4.20806408;stroke-miterlimit:4;stroke-dasharray:none;stroke-opacity:1" />
    <path
       inkscape:transform-center-y="-191.08637"
       inkscape:transform-center-x="81.348167"
       d="m -73.27532,420.60887 a 119.14597,112.39597 0 0 1 -64.30819,65.42578 119.14597,112.39597 0 0 1 -94.57926,0.60963"
       sodipodi:open="true"
       sodipodi:end="1.9721161"
       sodipodi:start="0.33950627"
       sodipodi:ry="112.39597"
       sodipodi:rx="119.14597"
       sodipodi:cy="383.17859"
       sodipodi:cx="-185.62035"
       sodipodi:type="arc"
       id="path4650"
       style="fill:#ffffff;fill-opacity:0;stroke:#000000;stroke-width:4.20806408;stroke-miterlimit:4;stroke-dasharray:none;stroke-opacity:1"
       transform="matrix(0.70710678,-0.70710678,0.70710678,0.70710678,0,0)" />
    <path
       inkscape:transform-center-y="-191.08637"
       inkscape:transform-center-x="81.348167"
       d="m -511.40943,180.00222 a 119.14597,112.39597 0 0 1 -64.30819,65.42577 119.14597,112.39597 0 0 1 -94.57926,0.60963"
       sodipodi:open="true"
       sodipodi:end="1.9721161"
       sodipodi:start="0.33950627"
       sodipodi:ry="112.39597"
       sodipodi:rx="119.14597"
       sodipodi:cy="142.57193"
       sodipodi:cx="-623.75446"
       sodipodi:type="arc"
       id="path4652"
       style="fill:#ffffff;fill-opacity:0;stroke:#000000;stroke-width:4.20806408;stroke-miterlimit:4;stroke-dasharray:none;stroke-opacity:1"
       transform="matrix(0,-1,1,0,0,0)" />
    <path
       inkscape:transform-center-y="-191.08637"
       inkscape:transform-center-x="81.348167"
       d="m -651.08253,-299.94008 a 119.14597,112.39597 0 0 1 -64.30818,65.42578 119.14597,112.39597 0 0 1 -94.57926,0.60963"
       sodipodi:open="true"
       sodipodi:end="1.9721161"
       sodipodi:start="0.33950627"
       sodipodi:ry="112.39597"
       sodipodi:rx="119.14597"
       sodipodi:cy="-337.37036"
       sodipodi:cx="-763.42755"
       sodipodi:type="arc"
       id="path4654"
       style="fill:#ffffff;fill-opacity:0;stroke:#000000;stroke-width:4.20806408;stroke-miterlimit:4;stroke-dasharray:none;stroke-opacity:1"
       transform="matrix(-0.70710678,-0.70710678,0.70710678,-0.70710678,0,0)" />
    <path
       inkscape:transform-center-y="-191.08637"
       inkscape:transform-center-x="81.348167"
       d="m -410.4759,-738.07423 a 119.14597,112.39597 0 0 1 -64.30819,65.42578 119.14597,112.39597 0 0 1 -94.57925,0.60962"
       sodipodi:open="true"
       sodipodi:end="1.9721161"
       sodipodi:start="0.33950627"
       sodipodi:ry="112.39597"
       sodipodi:rx="119.14597"
       sodipodi:cy="-775.50452"
       sodipodi:cx="-522.82092"
       sodipodi:type="arc"
       id="path4656"
       style="fill:#ffffff;fill-opacity:0;stroke:#000000;stroke-width:4.20806408;stroke-miterlimit:4;stroke-dasharray:none;stroke-opacity:1"
       transform="scale(-1,-1)" />
    <path
       inkscape:transform-center-y="-191.08637"
       inkscape:transform-center-x="81.348167"
       d="m 69.46641,-877.74733 a 119.14597,112.39597 0 0 1 -64.3081897,65.42578 119.14597,112.39597 0 0 1 -94.5792563,0.60963"
       sodipodi:open="true"
       sodipodi:end="1.9721161"
       sodipodi:start="0.33950627"
       sodipodi:ry="112.39597"
       sodipodi:rx="119.14597"
       sodipodi:cy="-915.17761"
       sodipodi:cx="-42.878616"
       sodipodi:type="arc"
       id="path4658"
       style="fill:#ffffff;fill-opacity:0;stroke:#000000;stroke-width:4.20806408;stroke-miterlimit:4;stroke-dasharray:none;stroke-opacity:1"
       transform="matrix(-0.70710678,0.70710678,-0.70710678,-0.70710678,0,0)" />
    <path
       transform="matrix(0,1,-1,0,0,0)"
       inkscape:transform-center-y="80.75396"
       inkscape:transform-center-x="-190.84112"
       d="m 507.60061,-637.14064 a 119.14597,112.39597 0 0 1 -64.30819,65.42578 119.14597,112.39597 0 0 1 -94.57926,0.60963"
       sodipodi:open="true"
       sodipodi:end="1.9721161"
       sodipodi:start="0.33950627"
       sodipodi:ry="112.39597"
       sodipodi:rx="119.14597"
       sodipodi:cy="-674.57092"
       sodipodi:cx="395.25558"
       sodipodi:type="arc"
       id="path4660"
       style="fill:#ffffff;fill-opacity:0;stroke:#000000;stroke-width:4.20806408;stroke-miterlimit:4;stroke-dasharray:none;stroke-opacity:1" />
    <path
       style="fill:#ffffff;fill-opacity:0;stroke:#000000;stroke-width:4.20806408;stroke-miterlimit:4;stroke-dasharray:none;stroke-opacity:1"
       id="path4640"
       sodipodi:type="arc"
       sodipodi:cx="534.92865"
       sodipodi:cy="-194.62866"
       sodipodi:rx="119.14597"
       sodipodi:ry="112.39597"
       sodipodi:start="0.33950627"
       sodipodi:end="1.9721161"
       sodipodi:open="true"
       d="m 647.27368,-157.19838 a 119.14597,112.39597 0 0 1 -64.30819,65.425781 119.14597,112.39597 0 0 1 -94.57926,0.609628"
       inkscape:transform-center-x="-80.75396"
       inkscape:transform-center-y="-190.84112"
       transform="matrix(0.70710678,0.70710678,-0.70710678,0.70710678,0,0)" />
  </g>
  <g
     inkscape:groupmode="layer"
     id="layer5"
     inkscape:label="Layer 2">
    <path
       style="fill:#800080;fill-opacity:0;stroke:#000000;stroke-width:3;stroke-miterlimit:4;stroke-dasharray:none;stroke-opacity:1"
       d="M 371.1012,421.35377 A 127.44965,127.50667 0 0 0 281.40637,382.76673 127.44965,127.50667 0 0 0 407.04487,507.98816 127.44965,127.50667 0 0 0 371.1012,421.35377 Z"
       id="path4363"
       inkscape:connector-curvature="0"
       inkscape:transform-center-x="64.345938"
       inkscape:transform-center-y="-64.128312" />
    <path
       style="fill:#ff0000;fill-opacity:0;stroke:#000000;stroke-width:3;stroke-miterlimit:4;stroke-dasharray:none;stroke-opacity:1"
       d="m 320.41957,546.97611 a 127.50667,127.44965 0 0 0 -38.58704,89.69484 127.50667,127.44965 0 0 0 125.22143,-125.63851 127.50667,127.44965 0 0 0 -86.63439,35.94367 z"
       id="path4367"
       inkscape:connector-curvature="0"
       inkscape:transform-center-x="64.345938"
       inkscape:transform-center-y="-64.128312" />
    <path
       style="fill:#ff0000;fill-opacity:0;stroke:#000000;stroke-width:3;stroke-miterlimit:4;stroke-dasharray:none;stroke-opacity:1"
       d="m 319.74315,473.66843 a 127.50667,127.44965 45 0 0 -90.70899,36.13867 127.50667,127.44965 45 0 0 177.38476,-0.29492 127.50667,127.44965 45 0 0 -86.67577,-35.84375 z"
       id="path4369"
       inkscape:connector-curvature="0"
       inkscape:transform-center-x="64.12831"
       inkscape:transform-center-y="64.345938" />
    <path
       style="fill:#ff0000;fill-opacity:0;stroke:#000000;stroke-width:3;stroke-miterlimit:4;stroke-dasharray:none;stroke-opacity:1"
       d="M 496.72354,472.0354 A 127.50667,127.44965 0 0 0 535.31058,382.34056 127.50667,127.44965 0 0 0 410.08915,507.97907 127.50667,127.44965 0 0 0 496.72354,472.0354 Z"
       id="path4371"
       inkscape:connector-curvature="0"
       inkscape:transform-center-x="64.12831"
       inkscape:transform-center-y="64.345938" />
    <path
       style="fill:#ff0000;fill-opacity:0;stroke:#000000;stroke-width:3;stroke-miterlimit:4;stroke-dasharray:none;stroke-opacity:1"
       d="m 497.39996,545.34308 a 127.50667,127.44965 45 0 0 90.70899,-36.13867 127.50667,127.44965 45 0 0 -177.38477,0.29492 127.50667,127.44965 45 0 0 86.67578,35.84375 z"
       id="path4373"
       inkscape:connector-curvature="0"
       inkscape:transform-center-x="64.12831"
       inkscape:transform-center-y="64.345938" />
    <path
       style="fill:#ff0000;fill-opacity:0;stroke:#000000;stroke-width:3;stroke-miterlimit:4;stroke-dasharray:none;stroke-opacity:1"
       d="m 446.04191,597.65774 a 127.44965,127.50667 0 0 0 89.69484,38.58704 127.44965,127.50667 0 0 0 -125.63851,-125.22143 127.44965,127.50667 0 0 0 35.94367,86.63439 z"
       id="path4375"
       inkscape:connector-curvature="0"
       inkscape:transform-center-x="64.12831"
       inkscape:transform-center-y="64.345938" />
    <path
       style="fill:#ff0000;fill-opacity:0;stroke:#000000;stroke-width:3;stroke-miterlimit:4;stroke-dasharray:none;stroke-opacity:1"
       d="m 372.73423,598.33416 a 127.44965,127.50667 45 0 0 36.13867,90.70899 127.44965,127.50667 45 0 0 -0.29492,-177.38477 127.44965,127.50667 45 0 0 -35.84375,86.67578 z"
       id="path4377"
       inkscape:connector-curvature="0"
       inkscape:transform-center-x="64.12831"
       inkscape:transform-center-y="64.345938" />
    <path
       style="fill:#ff0000;fill-opacity:0;stroke:#000000;stroke-width:3;stroke-miterlimit:4;stroke-dasharray:none;stroke-opacity:1"
       d="m 444.40888,420.67735 a 127.44965,127.50667 45 0 0 -36.13867,-90.70899 127.44965,127.50667 45 0 0 0.29492,177.38476 127.44965,127.50667 45 0 0 35.84375,-86.67577 z"
       id="path4379"
       inkscape:connector-curvature="0"
       inkscape:transform-center-x="64.12831"
       inkscape:transform-center-y="64.345938" />
    <path
       style="fill:#00ff00;fill-opacity:0;stroke:none;stroke-width:2.14285707;stroke-miterlimit:4;stroke-dasharray:none;stroke-opacity:1"
       d="m 257.04504,624.76415 c -0.005,-14.67063 -0.65995,-20.53915 -3.61038,-32.32639 -5.81692,-23.23919 -17.34619,-42.97797 -34.83235,-59.635 -3.5976,-3.42702 -5.89823,-5.97475 -5.11252,-5.66164 25.7478,10.26077 50.84986,15.79929 86.42858,19.06959 4.71428,0.43333 10.39323,0.99645 12.61988,1.25139 l 4.04845,0.46352 -4.29936,5 c -2.36466,2.75 -6.0356,7.25 -8.15765,10 -2.12206,2.75 -5.76062,7.18885 -8.08571,9.86409 -4.69616,5.40342 -16.39601,22.42244 -22.12131,32.17847 -4.18512,7.13152 -10.44332,19.39397 -14.29517,28.01025 l -2.57814,5.76709 -0.004,-13.98137 -3e-5,0 z"
       id="path5721"
       inkscape:connector-curvature="0" />
  </g>
</svg>
